<?xml version="1.0" encoding="UTF-8" standalone="no"?>
<!-- Created with Inkscape (http://www.inkscape.org/) -->

<svg
   width="281.64255mm"
   height="153.10167mm"
   viewBox="0 0 1064.4758 578.65199"
   version="1.1"
   id="svg1"
   xmlns="http://www.w3.org/2000/svg"
   xmlns:svg="http://www.w3.org/2000/svg">
  <defs
     id="defs1" />
  <g
     id="layer2"
     transform="translate(-29.021963,-107.52439)">
    <path
       style="fill:#fafafa;fill-opacity:1;stroke:#ff2000;stroke-width:8.73096;stroke-dasharray:none;stroke-opacity:1"
       id="path2"
       d="m 549.49123,531.58009 c -5.43137,9.40741 -302.71741,181.04558 -313.58014,181.04558 -10.86274,0 -308.148776,-171.63817 -313.580143,-181.04558 -5.431368,-9.4074 -5.431366,-352.68375 1e-6,-362.09115 5.431368,-9.40741 302.717402,-181.045581 313.580142,-181.045581 10.86273,0 308.14877,171.638171 313.58014,181.045581 5.43136,9.4074 5.43136,352.68375 0,362.09115 z"
       transform="matrix(1.6528145,0,0,0.78952318,171.34261,120.09527)" />
  </g>
  <g
     id="layer1"
     transform="matrix(0.90429303,0,0,0.89831661,5.9434312,-85.103885)">
    <text
       xml:space="preserve"
       style="font-style:italic;font-variant:normal;font-weight:normal;font-stretch:normal;font-size:40px;font-family:'Lobster Two';-inkscape-font-specification:'Lobster Two Italic';white-space:pre;inline-size:340.311;display:inline;fill:#ff2000;fill-opacity:1;stroke:#ff2000;stroke-width:1.37093;stroke-miterlimit:4;stroke-dasharray:none"
       x="321.87866"
       y="269.23184"
       id="text1"
       transform="matrix(5.5757826,0,0,3.6248426,-1673.8492,-662.80568)"><tspan
         x="321.87866"
         y="269.23184"
         id="tspan3">Turd Rail 
</tspan><tspan
         x="321.87866"
         y="319.23184"
         id="tspan4">Recordings</tspan></text>
  </g>
  <g
     id="layer3"
     transform="translate(-29.021963,-107.52439)">
    <text
       xml:space="preserve"
       style="font-style:normal;font-variant:normal;font-weight:normal;font-stretch:normal;font-size:190.417px;font-family:'Lobster Two';-inkscape-font-specification:'Lobster Two';fill:#08fd2e;fill-opacity:1;stroke:#000000;stroke-width:0;stroke-dasharray:none;stroke-opacity:1"
       x="89.02874"
       y="846.30048"
       id="text2"
       transform="scale(1.4441265,0.69246012)"><tspan
         id="tspan2"
         x="89.02874"
         y="846.30048"
         style="font-style:normal;font-variant:normal;font-weight:normal;font-stretch:normal;font-family:'Lobster Two';-inkscape-font-specification:'Lobster Two';fill:#08fd2e;stroke:#000000;stroke-width:0;stroke-dasharray:none;stroke-opacity:1">Al Dente</tspan></text>
  </g>
</svg>
